# xmcd
#
# Track frame offsets: 
#        150
#        19208
#        35607
#        47460
#        62869
#        75920
#        91138
#        112272
#        128848
#        150364
#
# Disc length: 2325 seconds
#
# Revision: 0
# Processed by: cddbd v1.5.2PL0 Copyright (c) Steve Scherf et al.
# Submitted via: ExactAudioCopy v1.0b3
#
DISCID=7309130a
DTITLE=Nalyssa Green - Barock
DYEAR=2011
DGENRE=
TTITLE0=Your Eyes
TTITLE1=Indagattah
TTITLE2=Hey Mr Young
TTITLE3=Cemetery
TTITLE4=Thick Air
TTITLE5=Loves Expires
TTITLE6=Fear
TTITLE7=My Kind Of Girl
TTITLE8=Let Them Eat Cake
TTITLE9=Joker
EXTD=
EXTT0=
EXTT1=
EXTT2=
EXTT3=
EXTT4=
EXTT5=
EXTT6=
EXTT7=
EXTT8=
EXTT9=
PLAYORDER=
